<?xml version="1.0" encoding="UTF-8"?>
<svg xmlns="http://www.w3.org/2000/svg" version="1.1" viewBox="0 0 309.1 92.4">
  <defs>
    <style>
      .cls-1 {
        fill: #fff;
      }
    </style>
  </defs>
  <!-- Generator: Adobe Illustrator 28.7.1, SVG Export Plug-In . SVG Version: 1.2.0 Build 142)  -->
  <g>
    <g id="_レイヤー_1" data-name="レイヤー_1">
      <g>
        <g>
          <polygon class="cls-1" points="45.9 30.8 67.7 0 0 0 43.8 61.7 65.6 30.8 45.9 30.8"/>
          <polygon class="cls-1" points="131.2 0 87.4 0 65.6 30.8 85.3 30.8 53.6 75.6 65.6 92.4 131.2 0"/>
        </g>
        <path class="cls-1" d="M132.5,75.3V30.8h7c4.1,0,7,.3,8.9.8,2.7.7,4.8,2,6.4,3.9,1.6,1.9,2.4,4.2,2.4,6.8s-.4,3.2-1.1,4.6c-.7,1.4-1.9,2.7-3.5,3.9,2.7,1.3,4.7,2.9,5.9,4.8,1.3,1.9,1.9,4.2,1.9,6.8s-.6,4.8-1.9,6.8c-1.3,2.1-3,3.6-5,4.6s-4.9,1.5-8.5,1.5c0,0-12.5,0-12.5,0ZM141,38.9v9.4h1.9c2.1,0,3.6-.4,4.6-1.3,1-.9,1.5-2,1.5-3.5s-.5-2.5-1.4-3.3c-1-.8-2.4-1.2-4.3-1.2h-2.3ZM141,55.8v11.4h2.1c3.5,0,5.9-.4,7.1-1.3,1.2-.9,1.8-2.2,1.8-3.9s-.7-3.4-2.2-4.5c-1.4-1.1-3.8-1.7-7.2-1.7,0,0-1.6,0-1.6,0Z"/>
        <path class="cls-1" d="M197.2,36.8l-6.3,5.5c-2.2-3.1-4.4-4.6-6.7-4.6s-2,.3-2.7.9c-.7.6-1.1,1.3-1.1,2s.3,1.5.8,2.1c.7.9,2.8,2.8,6.2,5.7,3.2,2.7,5.2,4.4,5.9,5.1,1.7,1.7,2.9,3.4,3.7,5,.7,1.6,1.1,3.3,1.1,5.2,0,3.7-1.3,6.7-3.8,9.1s-5.8,3.6-9.9,3.6-5.9-.8-8.3-2.3-4.4-4-6-7.3l7.1-4.3c2.1,3.9,4.6,5.9,7.4,5.9s2.7-.4,3.7-1.3c1-.8,1.5-1.8,1.5-2.9s-.4-2-1.1-3c-.7-1-2.4-2.6-4.9-4.6-4.9-4-8-7-9.4-9.2s-2.1-4.3-2.1-6.4c0-3.1,1.2-5.7,3.5-7.9,2.4-2.2,5.3-3.3,8.7-3.3s4.3.5,6.4,1.5c1.7.9,3.9,2.8,6.3,5.5Z"/>
        <path class="cls-1" d="M208.8,30.8h29.8v8.4h-10.7v36.2h-8.6v-36.3h-10.5v-8.3Z"/>
        <g>
          <path class="cls-1" d="M243.7,65.5c.2,3.8,2,5.5,5.3,5.5s4.3-1.5,4.7-2.8h5.3c-1.7,5.1-5.3,7.3-10.2,7.3s-11.1-4.7-11.1-11.4,4.5-11.5,11.1-11.5,11,6.2,10.5,12.9h-15.6ZM253.4,61.7c-.5-3-1.8-4.6-4.7-4.6s-4.9,2.9-5,4.6h9.7Z"/>
          <path class="cls-1" d="M278.6,60.8c-.4-2.4-1.9-3.7-4.4-3.7-3.8,0-5.1,3.9-5.1,7.1s1.2,6.8,5,6.8,4.4-1.8,4.7-4.4h5.8c-.8,5.8-4.7,8.9-10.5,8.9s-11-4.6-11-11.1,4-11.8,11.1-11.8,9.8,2.7,10.2,8.2c0,0-5.8,0-5.8,0Z"/>
          <path class="cls-1" d="M288.8,44.9h6v11.3h.1c1.5-2.4,4.1-3.6,6.3-3.6,6.3,0,7.9,3.6,7.9,9v13.4h-6v-12.4c0-3.6-1-5.3-3.8-5.3s-4.6,1.8-4.6,6.2v11.4h-6v-30h.1Z"/>
        </g>
      </g>
    </g>
  </g>
</svg>